<svg width="16" height="16" viewBox="0 0 16 16" fill="none" xmlns="http://www.w3.org/2000/svg">
<rect width="16" height="16" fill="#1E1E1E"/>
<rect width="16" height="16" fill="#0C2238"/>
<path d="M8.1207 12H5.2407V11.016H6.0327V8.904C6.0327 8.392 5.9407 8.032 5.7567 7.824C5.5727 7.608 5.3167 7.5 4.9887 7.5C4.5807 7.5 4.2567 7.632 4.0167 7.896C3.7847 8.16 3.6647 8.484 3.6567 8.868V11.016H4.4607V12H1.5687V11.016H2.3727V7.608H1.5327V6.612H3.6567V7.488C4.0327 6.832 4.6287 6.504 5.4447 6.504C5.9567 6.504 6.3967 6.66 6.7647 6.972C7.1327 7.284 7.3167 7.772 7.3167 8.436V11.016H8.1207V12ZM14.456 9.18C14.456 9.94 14.256 10.62 13.856 11.22C13.456 11.82 12.84 12.12 12.008 12.12C11.16 12.12 10.564 11.8 10.22 11.16C10.204 11.256 10.184 11.396 10.16 11.58C10.136 11.764 10.116 11.904 10.1 12H8.82795C8.87595 11.736 8.91995 11.468 8.95995 11.196C8.99995 10.916 9.01995 10.644 9.01995 10.38V4.728H8.21595V3.744H10.292V7.68C10.452 7.36 10.676 7.084 10.964 6.852C11.26 6.62 11.656 6.504 12.152 6.504C12.832 6.504 13.384 6.74 13.808 7.212C14.24 7.676 14.456 8.332 14.456 9.18ZM13.124 9.288C13.124 8.72 12.996 8.288 12.74 7.992C12.484 7.688 12.156 7.536 11.756 7.536C11.3 7.536 10.944 7.704 10.688 8.04C10.432 8.376 10.3 8.74 10.292 9.132V9.516C10.292 9.956 10.42 10.332 10.676 10.644C10.94 10.948 11.284 11.1 11.708 11.1C12.156 11.1 12.504 10.936 12.752 10.608C13 10.28 13.124 9.84 13.124 9.288Z" fill="white"/>
</svg>
