<svg width="32" height="32" viewBox="0 0 32 32" fill="none" xmlns="http://www.w3.org/2000/svg">
<rect width="32" height="32" fill="#0C2238"/>
<path d="M16.2716 25H9.79158V22.786H11.5736V18.034C11.5736 16.882 11.3666 16.072 10.9526 15.604C10.5386 15.118 9.96258 14.875 9.22458 14.875C8.30658 14.875 7.57758 15.172 7.03758 15.766C6.51558 16.36 6.24558 17.089 6.22758 17.953V22.786H8.03658V25H1.52958V22.786H3.33858V15.118H1.44858V12.877H6.22758V14.848C7.07358 13.372 8.41458 12.634 10.2506 12.634C11.4026 12.634 12.3926 12.985 13.2206 13.687C14.0486 14.389 14.4626 15.487 14.4626 16.981V22.786H16.2716V25ZM30.5259 18.655C30.5259 20.365 30.0759 21.895 29.1759 23.245C28.2759 24.595 26.8899 25.27 25.0179 25.27C23.1099 25.27 21.7689 24.55 20.9949 23.11C20.9589 23.326 20.9139 23.641 20.8599 24.055C20.8059 24.469 20.7609 24.784 20.7249 25H17.8629C17.9709 24.406 18.0699 23.803 18.1599 23.191C18.2499 22.561 18.2949 21.949 18.2949 21.355V8.638H16.4859V6.424H21.1569V15.28C21.5169 14.56 22.0209 13.939 22.6689 13.417C23.3349 12.895 24.2259 12.634 25.3419 12.634C26.8719 12.634 28.1139 13.165 29.0679 14.227C30.0399 15.271 30.5259 16.747 30.5259 18.655ZM27.5289 18.898C27.5289 17.62 27.2409 16.648 26.6649 15.982C26.0889 15.298 25.3509 14.956 24.4509 14.956C23.4249 14.956 22.6239 15.334 22.0479 16.09C21.4719 16.846 21.1749 17.665 21.1569 18.547V19.411C21.1569 20.401 21.4449 21.247 22.0209 21.949C22.6149 22.633 23.3889 22.975 24.3429 22.975C25.3509 22.975 26.1339 22.606 26.6919 21.868C27.2499 21.13 27.5289 20.14 27.5289 18.898Z" fill="white"/>
</svg>
